<svg width="27" height="33" viewBox="0 0 27 33" fill="none" xmlns="http://www.w3.org/2000/svg">
<path d="M22.6957 17.8877C22.7276 15.4091 24.0587 13.0639 26.1704 11.7656C24.8382 9.86311 22.607 8.65685 20.2855 8.58421C17.8096 8.32432 15.4092 10.0658 14.1475 10.0658C12.8614 10.0658 10.9187 8.61002 8.82688 8.65306C6.10022 8.74115 3.55829 10.2914 2.23171 12.6752C-0.619907 17.6123 1.50714 24.8683 4.23875 28.8591C5.60543 30.8132 7.20269 32.9961 9.29267 32.9187C11.3378 32.8339 12.1017 31.6146 14.5704 31.6146C17.0162 31.6146 17.7328 32.9187 19.8652 32.8695C22.0597 32.8339 23.4424 30.9066 24.7612 28.9339C25.7431 27.5415 26.4987 26.0026 27 24.3741C24.421 23.2833 22.6987 20.6879 22.6957 17.8877Z" fill="#B2B2B2"/>
<path d="M18.668 5.95967C19.8645 4.52323 20.454 2.67693 20.3113 0.812866C18.4832 1.00487 16.7945 1.87858 15.5818 3.2599C14.3959 4.60953 13.7788 6.42334 13.8954 8.21616C15.7242 8.23499 17.522 7.38497 18.668 5.95967Z" fill="#B2B2B2"/>
</svg>
